<svg width="24" height="23" viewBox="0 0 24 23" fill="none" xmlns="http://www.w3.org/2000/svg">
<path d="M11.082 0.410616C11.3098 -0.136912 12.0854 -0.136912 12.3131 0.410616L15.0679 7.03392C15.1639 7.26475 15.381 7.42246 15.6302 7.44244L22.7806 8.01568C23.3717 8.06307 23.6114 8.80074 23.161 9.18652L17.7132 13.8532C17.5233 14.0158 17.4404 14.271 17.4984 14.5142L19.1628 21.4918C19.3004 22.0686 18.6729 22.5245 18.1668 22.2154L12.0451 18.4763C11.8317 18.3459 11.5634 18.3459 11.3501 18.4763L5.22834 22.2154C4.72227 22.5245 4.09477 22.0686 4.23236 21.4918L5.89677 14.5142C5.95478 14.271 5.87186 14.0158 5.682 13.8532L0.234142 9.18652C-0.216216 8.80074 0.023468 8.06307 0.614571 8.01568L7.76499 7.44244C8.01418 7.42246 8.23125 7.26475 8.32726 7.03392L11.082 0.410616Z" fill="#FEC84B"/>
</svg>
