<svg width="107" height="107" viewBox="0 0 107 107" fill="none" xmlns="http://www.w3.org/2000/svg">
<path fill-rule="evenodd" clip-rule="evenodd" d="M0 53.3333C33.8996 53.3333 53.3333 33.8996 53.3333 0C53.3333 33.8996 72.767 53.3333 106.667 53.3333C72.767 53.3333 53.3333 72.767 53.3333 106.667C53.3333 72.767 33.8996 53.3333 0 53.3333Z" fill="white"/>
<path fill-rule="evenodd" clip-rule="evenodd" d="M0 16C10.1699 16 16 10.1699 16 0C16 10.1699 21.8301 16 32 16C21.8301 16 16 21.8301 16 32C16 21.8301 10.1699 16 0 16Z" fill="#FEC84B"/>
<path fill-rule="evenodd" clip-rule="evenodd" d="M85.333 31.9999C92.1129 31.9999 95.9997 28.1132 95.9997 21.3333C95.9997 28.1132 99.8864 31.9999 106.666 31.9999C99.8864 31.9999 95.9997 35.8867 95.9997 42.6666C95.9997 35.8867 92.1129 31.9999 85.333 31.9999Z" fill="#FEC84B"/>
</svg>
