<svg width="22" height="22" viewBox="0 0 22 22" fill="none" xmlns="http://www.w3.org/2000/svg">
<path d="M20 4.25C19.8011 4.25 19.6103 4.17098 19.4697 4.03033C19.329 3.88968 19.25 3.69891 19.25 3.5C19.25 3.30109 19.329 3.11032 19.4697 2.96967C19.6103 2.82902 19.8011 2.75 20 2.75C20.1989 2.75 20.3897 2.82902 20.5303 2.96967C20.671 3.11032 20.75 3.30109 20.75 3.5C20.75 3.69891 20.671 3.88968 20.5303 4.03033C20.3897 4.17098 20.1989 4.25 20 4.25ZM20 4.25V8C20 8.698 20 9.047 19.914 9.33C19.8187 9.64483 19.6471 9.93128 19.4146 10.164C19.1821 10.3967 18.8958 10.5684 18.581 10.664C18.297 10.75 17.948 10.75 17.25 10.75M1.5 17.25C1.69891 17.25 1.88968 17.329 2.03033 17.4697C2.17098 17.6103 2.25 17.8011 2.25 18C2.25 18.1989 2.17098 18.3897 2.03033 18.5303C1.88968 18.671 1.69891 18.75 1.5 18.75C1.30109 18.75 1.11032 18.671 0.96967 18.5303C0.829018 18.3897 0.75 18.1989 0.75 18C0.75 17.8011 0.829018 17.6103 0.96967 17.4697C1.11032 17.329 1.30109 17.25 1.5 17.25ZM1.5 17.25V13.5C1.5 12.802 1.5 12.453 1.586 12.17C1.68135 11.8552 1.85288 11.5687 2.0854 11.336C2.31792 11.1033 2.60424 10.9316 2.919 10.836C3.203 10.75 3.552 10.75 4.25 10.75M4.25 1.5C4.25 1.69891 4.17098 1.88968 4.03033 2.03033C3.88968 2.17098 3.69891 2.25 3.5 2.25C3.30109 2.25 3.11032 2.17098 2.96967 2.03033C2.82902 1.88968 2.75 1.69891 2.75 1.5C2.75 1.30109 2.82902 1.11032 2.96967 0.96967C3.11032 0.829018 3.30109 0.75 3.5 0.75C3.69891 0.75 3.88968 0.829018 4.03033 0.96967C4.17098 1.11032 4.25 1.30109 4.25 1.5ZM4.25 1.5H8C8.698 1.5 9.047 1.5 9.33 1.586C9.64494 1.68144 9.93147 1.85313 10.1642 2.08583C10.3969 2.31853 10.5686 2.60506 10.664 2.92C10.75 3.203 10.75 3.552 10.75 4.25M17.25 20C17.25 19.8011 17.329 19.6103 17.4697 19.4697C17.6103 19.329 17.8011 19.25 18 19.25C18.1989 19.25 18.3897 19.329 18.5303 19.4697C18.671 19.6103 18.75 19.8011 18.75 20C18.75 20.1989 18.671 20.3897 18.5303 20.5303C18.3897 20.671 18.1989 20.75 18 20.75C17.8011 20.75 17.6103 20.671 17.4697 20.5303C17.329 20.3897 17.25 20.1989 17.25 20ZM17.25 20H13.5C12.802 20 12.453 20 12.17 19.914C11.8552 19.8187 11.5687 19.6471 11.336 19.4146C11.1033 19.1821 10.9316 18.8958 10.836 18.581C10.75 18.297 10.75 17.948 10.75 17.25" stroke="white" stroke-width="1.5" stroke-linejoin="round"/>
<path d="M4.29883 10.701C4.29883 7.63705 4.29883 6.10505 5.25083 5.15305C6.20283 4.20105 7.73483 4.20105 10.7988 4.20105C13.8628 4.20105 15.3948 4.20105 16.3468 5.15305C17.2988 6.10505 17.2988 7.63705 17.2988 10.701C17.2988 13.765 17.2988 15.2971 16.3468 16.2491C15.3948 17.2011 13.8628 17.201 10.7988 17.201C7.73483 17.201 6.20283 17.2011 5.25083 16.2491C4.29883 15.2971 4.29883 13.765 4.29883 10.701Z" stroke="white" stroke-width="1.5" stroke-linejoin="round"/>
<path d="M11.2494 13.25L9.78938 8.72904C9.73875 8.58638 9.64443 8.46331 9.51984 8.37732C9.39525 8.29132 9.24673 8.24679 9.09538 8.25004C8.9442 8.247 8.7959 8.29164 8.67152 8.37761C8.54713 8.46359 8.45297 8.58655 8.40238 8.72904L6.94238 13.25M13.7494 8.25004V13.25M7.47938 11.75H10.7114" stroke="white" stroke-width="1.5" stroke-linecap="round" stroke-linejoin="round"/>
</svg>
