<svg width="15" height="34" viewBox="0 0 15 34" fill="none" xmlns="http://www.w3.org/2000/svg">
<path d="M4.98405 1.66162C4.10276 1.66162 3.25756 2.01171 2.63439 2.63488C2.01122 3.25805 1.66113 4.10325 1.66113 4.98454V14.9533C1.66113 15.8346 2.01122 16.6798 2.63439 17.3029C3.25756 17.9261 4.10276 18.2762 4.98405 18.2762C5.4247 18.2762 5.84729 18.4513 6.15888 18.7628C6.47046 19.0744 6.64551 19.497 6.64551 19.9377V21.5991C6.64551 22.4804 6.29542 23.3256 5.67225 23.9488C5.04908 24.5719 4.20388 24.922 3.32259 24.922C2.88195 24.922 2.45935 25.0971 2.14776 25.4087C1.83618 25.7203 1.66113 26.1429 1.66113 26.5835V29.9064C1.66113 30.3471 1.83618 30.7697 2.14776 31.0812C2.45935 31.3928 2.88195 31.5679 3.32259 31.5679C5.96647 31.5679 8.50206 30.5176 10.3716 28.6481C12.2411 26.7786 13.2913 24.243 13.2913 21.5991V4.98454C13.2913 4.10325 12.9412 3.25805 12.3181 2.63488C11.6949 2.01171 10.8497 1.66162 9.96842 1.66162H4.98405Z" stroke="#00DF82" stroke-width="3.32292" stroke-linecap="round" stroke-linejoin="round"/>
</svg>
