<svg width="50" height="50" viewBox="0 0 50 50" fill="none" xmlns="http://www.w3.org/2000/svg">
<path d="M30.1889 45.038C30.2679 45.2346 30.405 45.4024 30.582 45.5188C30.7591 45.6353 30.9675 45.6948 31.1793 45.6893C31.3911 45.6839 31.5962 45.6138 31.767 45.4885C31.9378 45.3631 32.0662 45.1885 32.1349 44.9881L45.6343 5.52848C45.7007 5.34446 45.7134 5.14532 45.6709 4.95435C45.6283 4.76339 45.5322 4.5885 45.3938 4.45015C45.2555 4.3118 45.0806 4.21571 44.8896 4.17313C44.6987 4.13055 44.4995 4.14323 44.3155 4.2097L4.85586 17.7091C4.65544 17.7778 4.48084 17.9062 4.35549 18.077C4.23015 18.2478 4.16006 18.4529 4.15464 18.6647C4.14921 18.8765 4.20871 19.0849 4.32514 19.2619C4.44158 19.439 4.60937 19.5761 4.80601 19.655L21.2752 26.2593C21.7959 26.4678 22.2689 26.7795 22.6658 27.1757C23.0627 27.5719 23.3753 28.0443 23.5847 28.5646L30.1889 45.038Z" stroke="#FEF8F6" stroke-width="4.15365" stroke-linecap="round" stroke-linejoin="round"/>
<path d="M45.3874 4.45923L22.667 27.1776" stroke="#FEF8F6" stroke-width="4.15365" stroke-linecap="round" stroke-linejoin="round"/>
</svg>
