<svg width="50" height="50" viewBox="0 0 50 50" fill="none" xmlns="http://www.w3.org/2000/svg">
<path d="M20.6368 32.1909C20.4514 31.4722 20.0768 30.8163 19.5519 30.2914C19.0271 29.7666 18.3712 29.392 17.6524 29.2065L4.91112 25.921C4.69374 25.8593 4.50242 25.7284 4.36619 25.5481C4.22996 25.3678 4.15625 25.148 4.15625 24.9221C4.15625 24.6961 4.22996 24.4763 4.36619 24.296C4.50242 24.1157 4.69374 23.9848 4.91112 23.9231L17.6524 20.6355C18.3709 20.4503 19.0266 20.076 19.5515 19.5515C20.0763 19.027 20.4511 18.3715 20.6368 17.6532L23.9224 4.91188C23.9834 4.69364 24.1142 4.50138 24.2948 4.36442C24.4753 4.22746 24.6957 4.15332 24.9223 4.15332C25.149 4.15332 25.3694 4.22746 25.5499 4.36442C25.7305 4.50138 25.8613 4.69364 25.9223 4.91188L29.2058 17.6532C29.3912 18.3719 29.7658 19.0278 30.2907 19.5527C30.8155 20.0775 31.4715 20.4522 32.1902 20.6376L44.9315 23.921C45.1506 23.9815 45.3438 24.1121 45.4815 24.2929C45.6192 24.4738 45.6938 24.6948 45.6938 24.9221C45.6938 25.1493 45.6192 25.3704 45.4815 25.5512C45.3438 25.732 45.1506 25.8627 44.9315 25.9231L32.1902 29.2065C31.4715 29.392 30.8155 29.7666 30.2907 30.2914C29.7658 30.8163 29.3912 31.4722 29.2058 32.1909L25.9203 44.9322C25.8592 45.1505 25.7284 45.3428 25.5478 45.4797C25.3673 45.6167 25.1469 45.6908 24.9203 45.6908C24.6936 45.6908 24.4732 45.6167 24.2927 45.4797C24.1121 45.3428 23.9814 45.1505 23.9203 44.9322L20.6368 32.1909Z" stroke="#FEF8F6" stroke-width="4.15365" stroke-linecap="round" stroke-linejoin="round"/>
<path d="M41.5361 6.23071V14.538" stroke="#FEF8F6" stroke-width="4.15365" stroke-linecap="round" stroke-linejoin="round"/>
<path d="M45.6901 10.384H37.3828" stroke="#FEF8F6" stroke-width="4.15365" stroke-linecap="round" stroke-linejoin="round"/>
<path d="M8.30664 35.3059V39.4596" stroke="#FEF8F6" stroke-width="4.15365" stroke-linecap="round" stroke-linejoin="round"/>
<path d="M10.3841 37.3831H6.23047" stroke="#FEF8F6" stroke-width="4.15365" stroke-linecap="round" stroke-linejoin="round"/>
</svg>
