<svg width="61" height="54" viewBox="0 0 61 54" fill="none" xmlns="http://www.w3.org/2000/svg">
<path d="M30.217 20.0124V50.0124M30.217 20.0124L40.217 30.0124M30.217 20.0124L20.217 30.0124M48.5503 36.6791C53.6137 36.6791 56.8837 32.5757 56.8837 27.5124C56.8835 25.5078 56.2262 23.5585 55.0125 21.9631C53.7988 20.3677 52.0956 19.2141 50.1637 18.6791C49.8664 14.9406 48.317 11.4116 45.766 8.66271C43.2149 5.91379 39.8113 4.10561 36.1054 3.53049C32.3994 2.95536 28.6079 3.64693 25.3436 5.49336C22.0794 7.3398 19.5333 10.2332 18.117 13.7057C15.1351 12.8791 11.9469 13.271 9.25393 14.795C6.5609 16.3191 4.5836 18.8505 3.75701 21.8324C2.93042 24.8143 3.32225 28.0025 4.84629 30.6955C6.37034 33.3885 8.90176 35.3658 11.8837 36.1924" stroke="#03624C" stroke-width="6.66667" stroke-linecap="round" stroke-linejoin="round"/>
</svg>
